# xmcd
#
# Track frame offsets: 
#        150
#        22600
#        43472
#
# Disc length: 819 seconds
#
# Revision: 0
# Processed by: cddbd v1.5PL3 Copyright (c) Steve Scherf et al.
# Submitted via: ExactAudioCopy v0.95a3
#
DISCID=1b033103
DTITLE=GRASS VALLEY - HAPPINESS
DYEAR=1991
DGENRE=Rock
TTITLE0=HAPPINESS
TTITLE1=D2
TTITLE2=MANUAL PEOPLE
EXTD=
EXTT0=
EXTT1=
EXTT2=
PLAYORDER=
